# xmcd
#
# Track frame offsets:
#	150
#	12305
#	26049
#	40600
#	52099
#	71225
#	87628
#	105644
#	121696
#	138997
#	156201
#	172050
#	189228
#	205712
#	226863
#
# Disc length: 3235 seconds
#
# Revision: 0
# Processed by: cddbd v1.5.2PL0 Copyright (c) Steve Scherf et al.
# Submitted via: audiograbber 1.83.01
#
DISCID=c80ca10f
DTITLE=Tracy Byrd - CB8590
DYEAR=2007
DGENRE=Karaoke
TTITLE0=Tracy Byrd - Holdin' Heaven
TTITLE1=Tracy Byrd - Lifestyles Of The Not So Rich And Famous
TTITLE2=Tracy Byrd - Watermelon Crawl
TTITLE3=Tracy Byrd - The First Step
TTITLE4=Tracy Byrd - The Keeper Of The Stars
TTITLE5=Tracy Byrd - Walking To Jeruselum
TTITLE6=Tracy Byrd - Love Lessons
TTITLE7=Tracy Byrd - Heaven In My Woman's Eyes
TTITLE8=Tracy Byrd - Big Love
TTITLE9=Tracy Byrd - Don't Take Her She's All I Got
TTITLE10=Tracy Byrd - Don't Love Make A Diamond Shine
TTITLE11=Tracy Byrd - I'm From The Country
TTITLE12=Tracy Byrd - I Wanna Feel That Way Again
TTITLE13=Tracy Byrd - Put Your Hand In Mine
TTITLE14=Tracy Byrd - When Mama Ain't Happy
EXTD=
EXTT0=
EXTT1=
EXTT2=
EXTT3=
EXTT4=
EXTT5=
EXTT6=
EXTT7=
EXTT8=
EXTT9=
EXTT10=
EXTT11=
EXTT12=
EXTT13=
EXTT14=
PLAYORDER=
